<svg viewBox="0 0 122.482 118.348" xmlns="http://www.w3.org/2000/svg"><path style="fill:#4d92b7;fill-opacity:1;stroke:#f55b14;stroke-width:3.5;stroke-linecap:square;stroke-linejoin:round;stroke-miterlimit:4;stroke-dasharray:none;stroke-opacity:1" d="M138.329 53.348a55.812 55.787 0 0 1-55.33 55.785A55.812 55.787 0 0 1 26.713 54.31 55.812 55.787 0 0 1 81.072-2.42a55.812 55.787 0 0 1 57.224 53.842" transform="translate(-22.658 5.761)"/><path style="fill:#1d6890;fill-opacity:1;stroke:#f55b14;stroke-width:9.07087;stroke-linejoin:round;stroke-miterlimit:4;stroke-dasharray:none;stroke-opacity:1" d="m138.368 338.374-24.197 12.152-3.708 26.823-19.035-19.258-26.656 4.763L77.206 338.8 64.439 314.92l26.72 4.392 18.764-19.522 4.08 26.77z" transform="matrix(.2154 0 0 .2154 24.496 -13.578)"/><path style="fill:#1d6890;fill-opacity:1;stroke:#f55b14;stroke-width:12.8504;stroke-linejoin:round;stroke-miterlimit:4;stroke-dasharray:none;stroke-opacity:1" d="m167.278 335.981-34.493 10.047-11.28 34.11-20.213-29.701-35.927-.187 22.001-28.402-10.924-34.226 33.81 12.148 29.176-20.966-1.105 35.91z" transform="matrix(.2154 0 0 .2154 22.387 18.856)"/><path style="fill:#1d6890;fill-opacity:1;stroke:#f55b14;stroke-width:8.31496;stroke-linejoin:round;stroke-miterlimit:4;stroke-dasharray:none;stroke-opacity:1" d="m518.158 282.38-21.11 9.931-3.786 23.02-15.968-17.008-23.063 3.513 11.24-20.443-10.467-20.848 22.915 4.373 16.594-16.398 2.922 23.146z" transform="matrix(.2154 0 0 .2154 -16.555 -22.494)"/><path style="fill:#1d6890;fill-opacity:1;stroke:#f55b14;stroke-width:6.04724;stroke-linejoin:round;stroke-miterlimit:4;stroke-dasharray:none;stroke-opacity:1" d="m545.705 403.197-11.37 4.226-2.963 11.762-7.533-9.507-12.102.816 6.714-10.102-4.516-11.257 11.682 3.263 9.311-7.773.507 12.118z" transform="matrix(.2154 0 0 .2154 -38.612 -63.318)"/><path style="fill:#1d6890;fill-opacity:1;stroke:#f55b14;stroke-width:8.69291;stroke-linejoin:round;stroke-miterlimit:4;stroke-dasharray:none;stroke-opacity:1" d="m423.833 444.43 22.877 11.826 22.71-12.143-4.176 25.412 18.566 17.847-25.459 3.88-11.236 23.173-11.558-23.014-25.51-3.525 18.316-18.104z" transform="matrix(.2154 0 0 .2154 -23.004 -45.038)"/></svg>