<?xml version="1.0" encoding="UTF-8" standalone="no"?>
<svg
   viewBox="0 0 123.9 123.9"
   version="1.1"
   id="svg14"
   sodipodi:docname="awesome-spark-rect.svg"
   inkscape:version="1.1 (c4e8f9e, 2021-05-24)"
   inkscape:export-filename="/home/zero323/awesome-spark-rect.png"
   inkscape:export-xdpi="2209.28"
   inkscape:export-ydpi="2209.28"
   xmlns:inkscape="http://www.inkscape.org/namespaces/inkscape"
   xmlns:sodipodi="http://sodipodi.sourceforge.net/DTD/sodipodi-0.dtd"
   xmlns="http://www.w3.org/2000/svg"
   xmlns:svg="http://www.w3.org/2000/svg">
  <defs
     id="defs18" />
  <sodipodi:namedview
     id="namedview16"
     pagecolor="#ffffff"
     bordercolor="#666666"
     borderopacity="1.0"
     inkscape:pageshadow="2"
     inkscape:pageopacity="0.0"
     inkscape:pagecheckerboard="0"
     showgrid="false"
     inkscape:zoom="7.0460048"
     inkscape:cx="61.879039"
     inkscape:cy="61.950001"
     inkscape:window-width="1920"
     inkscape:window-height="1200"
     inkscape:window-x="0"
     inkscape:window-y="0"
     inkscape:window-maximized="1"
     inkscape:current-layer="svg14" />
  <path
     style="fill:#4d92b7;fill-opacity:1;stroke:#f55b14;stroke-width:4.35102;stroke-linejoin:round;stroke-miterlimit:4;stroke-dasharray:none;stroke-opacity:1;paint-order:normal"
     d="M29.346 5.973h119.549v119.549H29.346z"
     transform="translate(-27.17 -3.797)"
     id="path2" />
  <path
     style="fill:#1d6890;fill-opacity:1;stroke:#f55b14;stroke-width:2.35305;stroke-linejoin:round;stroke-miterlimit:4;stroke-dasharray:none;stroke-opacity:1"
     d="m 54.39033,59.982009 -6.276853,3.15231 -0.961875,6.958051 -4.937798,-4.995646 -6.914739,1.235553 3.225463,-6.239758 -3.311841,-6.194621 6.931332,1.139308 4.867503,-5.064123 1.058378,6.944301 z"
     id="path4" />
  <path
     style="fill:#1d6890;fill-opacity:1;stroke:#f55b14;stroke-width:3.33347;stroke-linejoin:round;stroke-miterlimit:4;stroke-dasharray:none;stroke-opacity:1"
     d="m 59.349429,98.423179 -8.947696,2.606261 -2.926103,8.8483 -5.243382,-7.7046 -9.319685,-0.0486 5.707199,-7.367668 -2.833759,-8.878439 8.770527,3.151273 7.568437,-5.438714 -0.286643,9.315277 z"
     id="path6" />
  <path
     style="fill:#1d6890;fill-opacity:1;stroke:#f55b14;stroke-width:2.15698;stroke-linejoin:round;stroke-miterlimit:4;stroke-dasharray:none;stroke-opacity:1"
     d="m 103.47033,34.718976 -5.476108,2.57617 -0.9821,5.971528 -4.142206,-4.411985 -5.982691,0.911294 2.915733,-5.303035 -2.715212,-5.408104 5.9443,1.134386 4.304604,-4.253744 0.757962,6.004212 z"
     id="path8" />
  <path
     style="fill:#1d6890;fill-opacity:1;stroke:#f55b14;stroke-width:1.56872;stroke-linejoin:round;stroke-miterlimit:4;stroke-dasharray:none;stroke-opacity:1"
     d="m 84.050988,16.893262 -2.949449,1.096254 -0.768622,3.051133 -1.954109,-2.466175 -3.139331,0.211678 1.741653,-2.62052 -1.171477,-2.920138 3.03038,0.846442 2.415335,-2.016364 0.131517,3.143483 z"
     id="path10" />
  <path
     style="fill:#1d6890;fill-opacity:1;stroke:#f55b14;stroke-width:2.25498;stroke-linejoin:round;stroke-miterlimit:4;stroke-dasharray:none;stroke-opacity:1"
     d="m 71.234704,49.604286 5.934439,3.067738 5.891115,-3.14997 -1.083278,6.592033 4.816136,4.629622 -6.604222,1.006496 -2.914689,6.011222 -2.998217,-5.969974 -6.617455,-0.914409 4.751284,-4.696287 z"
     id="path12" />
</svg>
