<svg viewBox="0 0 123.9 123.9" xmlns="http://www.w3.org/2000/svg"><path style="fill:#4d92b7;fill-opacity:1;stroke:#f55b14;stroke-width:4.35102;stroke-linejoin:round;stroke-miterlimit:4;stroke-dasharray:none;stroke-opacity:1;paint-order:normal" d="M29.346 5.973h119.549v119.549H29.346z" transform="translate(-27.17 -3.797)"/><path style="fill:#1d6890;fill-opacity:1;stroke:#f55b14;stroke-width:9.07087;stroke-linejoin:round;stroke-miterlimit:4;stroke-dasharray:none;stroke-opacity:1" d="m138.368 338.374-24.197 12.152-3.708 26.823-19.035-19.258-26.656 4.763L77.206 338.8 64.439 314.92l26.72 4.392 18.764-19.522 4.08 26.77z" transform="matrix(.26458 0 0 .26458 20.466 -30.548)"/><path style="fill:#1d6890;fill-opacity:1;stroke:#f55b14;stroke-width:12.8504;stroke-linejoin:round;stroke-miterlimit:4;stroke-dasharray:none;stroke-opacity:1" d="m167.278 335.981-34.493 10.047-11.28 34.11-20.213-29.701-35.927-.187 22.001-28.402-10.924-34.226 33.81 12.148 29.176-20.966-1.105 35.91z" transform="matrix(.26458 0 0 .26458 17.875 9.293)"/><path style="fill:#1d6890;fill-opacity:1;stroke:#f55b14;stroke-width:8.31496;stroke-linejoin:round;stroke-miterlimit:4;stroke-dasharray:none;stroke-opacity:1" d="m518.158 282.38-21.11 9.931-3.786 23.02-15.968-17.008-23.063 3.513 11.24-20.443-10.467-20.848 22.915 4.373 16.594-16.398 2.922 23.146z" transform="matrix(.26458 0 0 .26458 -29.96 -41.5)"/><path style="fill:#1d6890;fill-opacity:1;stroke:#f55b14;stroke-width:6.04724;stroke-linejoin:round;stroke-miterlimit:4;stroke-dasharray:none;stroke-opacity:1" d="m545.705 403.197-11.37 4.226-2.963 11.762-7.533-9.507-12.102.816 6.714-10.102-4.516-11.257 11.682 3.263 9.311-7.773.507 12.118z" transform="matrix(.26458 0 0 .26458 -57.055 -91.647)"/><path style="fill:#1d6890;fill-opacity:1;stroke:#f55b14;stroke-width:8.69291;stroke-linejoin:round;stroke-miterlimit:4;stroke-dasharray:none;stroke-opacity:1" d="m423.833 444.43 22.877 11.826 22.71-12.143-4.176 25.412 18.566 17.847-25.459 3.88-11.236 23.173-11.558-23.014-25.51-3.525 18.316-18.104z" transform="matrix(.26458 0 0 .26458 -37.882 -69.193)"/></svg>