<svg xmlns="http://www.w3.org/2000/svg"><symbol id="as-round" viewBox="0 0 48 48"><path d="M24.064.674a23.656 23.656 0 0 0-4.533.463C10.313 2.987 3.052 10.273 1.22 19.51a23.367 23.367 0 0 0 4.224 18.574 24.1 24.1 0 0 0 5.813 5.486c3.532 2.34 7.525 3.644 11.828 3.867.66.035 2.108.015 2.82-.039a23.305 23.305 0 0 0 11.182-3.822A23.373 23.373 0 0 0 47.443 26.64c.094-.849.14-1.71.139-2.569.004.007.008.01.014.004.012-.012.012-.044.002-.07-.01-.024-.016-.016-.02.008a23.578 23.578 0 0 0-1.244-7.504A23.472 23.472 0 0 0 32.547 2.215c-.302-.117-.77-.285-1.04-.373A23.408 23.408 0 0 0 24.065.674zm.022 1.428c.823-.004 1.648.013 2.037.05 4.728.462 8.845 2.203 12.432 5.258.994.847 2.231 2.16 3.097 3.285a21.902 21.902 0 0 1 4.106 9.07c.31 1.56.402 2.552.402 4.301 0 1.411-.036 1.995-.201 3.149-.41 2.874-1.447 5.77-2.938 8.217a22.082 22.082 0 0 1-6.648 6.94c-3.225 2.146-6.776 3.351-10.707 3.636-.463.034-2.335.043-2.838.013-3.806-.222-7.57-1.484-10.797-3.617-1.264-.835-2.262-1.655-3.406-2.799-1.163-1.161-2.007-2.193-2.861-3.496a21.965 21.965 0 0 1-3.448-9.535 22.654 22.654 0 0 1 .385-7.32 22.243 22.243 0 0 1 3.76-8.236 22.06 22.06 0 0 1 7.95-6.659c2.44-1.204 4.799-1.88 7.65-2.19.381-.04 1.202-.064 2.025-.067zM40.69 7.467c-.001.002.009.018.032.047.047.06.078.079.078.048 0-.007-.03-.036-.065-.064-.029-.023-.043-.033-.045-.031zm-9.625.26c-.11-.03-.25.058-.55.308-.205.171-.398.31-.428.31-.03 0-.23-.049-.442-.11-.478-.14-.585-.147-.673-.038-.096.12-.086.188.111.676l.178.438-.27.414c-.287.442-.325.574-.197.69.066.059.123.061.596.038l.521-.023.32.404c.294.371.33.404.442.404.07 0 .149-.027.181-.064.032-.035.113-.279.18-.54l.121-.474.457-.174c.77-.295.782-.417.08-.85l-.4-.247-.027-.514c-.023-.432-.038-.524-.096-.582a.235.235 0 0 0-.104-.066zm-.322.802c.016 0 .027.114.027.254s.02.294.041.342c.022.048.145.152.274.23.129.08.234.156.234.17 0 .014-.098.061-.22.106-.336.122-.385.174-.46.49-.035.151-.074.274-.085.274-.012 0-.108-.109-.215-.24l-.195-.24-.327.01c-.18.007-.328.005-.328-.003 0-.01.07-.12.153-.248.176-.27.18-.342.048-.664a1.057 1.057 0 0 1-.082-.246c.008-.007.12.019.25.058.344.105.391.097.639-.11.12-.1.231-.182.246-.183zm5.668 3.77c-.108 0-.19.065-.594.459l.01-.012c.045-.058.044-.06-.014-.014-.035.028-.064.057-.064.065 0 .011.004.016.012.014l-.035.035c.029-.039.029-.042-.022-.002-.035.027-.064.054-.064.062 0 .012.004.014.011.012l-.054.053c.016-.023.004-.015-.04.02-.035.027-.064.054-.064.062 0 .007 0 .012.004.013l-.006.004c.006-.01-.008.001-.045.03a.298.298 0 0 0-.062.06l-.002.002c0 .008.002.012.006.014-.001 0-.005 0-.006.002h-.002a.438.438 0 0 0-.043.031c-.036.027-.065.057-.065.064l.002.008c-.063.062-.173.17-.209.203l-.142.135.025-.03c.046-.058.045-.06-.013-.015-.036.027-.065.057-.065.065 0 .017.01.018.027.006l-.056.054-.89-.17c-.491-.093-.944-.17-1.009-.17a.36.36 0 0 0-.326.278c-.017.09.059.268.422.998l.441.888-.408.739c-.493.892-.553 1.021-.523 1.138a.424.424 0 0 0 .256.256c.04.013.502-.043 1.025-.123l.95-.144.456.482c.251.267.564.597.698.733.21.214.26.248.375.248a.354.354 0 0 0 .232-.088c.095-.082.11-.137.268-1.065l.168-.98.859-.4c.473-.22.888-.434.924-.475a.33.33 0 0 0 .054-.377c-.048-.102-.173-.178-.892-.549-.46-.237-.854-.45-.877-.473-.022-.022-.095-.46-.16-.974s-.132-.962-.15-.996c-.056-.104-.189-.176-.323-.176zm-.377.219a.31.31 0 0 0-.084.074c-.036.04-.059.072-.049.072.01 0 .05-.032.086-.072.036-.04.057-.074.047-.074zm.13.92c.006.008.047.305.09.662.044.356.099.69.122.74.03.066.211.179.658.412.339.177.617.332.617.344 0 .012-.271.15-.605.308-.334.159-.636.327-.672.371-.043.056-.1.29-.168.715a9.147 9.147 0 0 1-.125.678c-.014.026-.2-.149-.478-.447-.252-.27-.502-.51-.555-.532-.075-.03-.241-.018-.76.059-.365.055-.673.09-.685.078-.012-.012.117-.274.287-.582.17-.308.32-.602.334-.656.019-.077-.042-.23-.29-.729-.171-.346-.303-.637-.292-.648.01-.01.29.032.62.096.896.17.784.203 1.382-.385.036-.036.033-.03.068-.063 0 .03.03.01.078-.05.04-.05.036-.05-.002-.022l.148-.139c0 .002 0 .004.002.004a.521.521 0 0 0 .127-.125c.016-.013.097-.091.098-.09zm-4.589 6.816c-.07.01-.538.24-1.04.512l-.917.492-.957-.49c-.624-.32-.994-.49-1.068-.49a.362.362 0 0 0-.23.103c-.153.136-.15.18.056 1.314.092.508.168.953.168.989 0 .02-.262.285-.432.466l-.017.014c-.036.028-.065.057-.065.065l.002.01-.039.042c-.003 0-.017.008-.045.03-.035.027-.062.056-.062.064 0 .01.006.01.013.008-.062.063-.053.063-.12.13-.5.499-.772.798-.784.86a.432.432 0 0 0 .164.383c.052.033.477.107 1.074.187.544.074 1.018.146 1.055.16.042.018.256.395.55.977.432.853.493.958.608 1.016.155.077.155.077.31.011.113-.047.157-.12.462-.742.185-.379.4-.824.478-.99.078-.166.159-.303.18-.303.053 0 1.937-.288 2.04-.312a.353.353 0 0 0 .265-.354c0-.156 0-.158-.793-.93l-.795-.77.174-1.063c.186-1.15.185-1.179-.002-1.327a.262.262 0 0 0-.233-.062zm-12.166.133c-.148 0-.162.012-.973.838l-.824.837-1.093-.181c-.602-.1-1.134-.17-1.184-.158a.354.354 0 0 0-.266.35c0 .123.092.323.512 1.11.282.53.512.983.512 1.008 0 .026-.222.476-.494 1-.273.525-.505.991-.516 1.036-.033.132.076.34.215.406.12.057.165.05 1.238-.143l1.113-.199.178.18c-.023-.016-.016-.005.018.039.027.035.056.064.064.064.01 0 .015-.005.014-.012l.156.157-.064-.055.07.084c.06.072.087.088.092.068l.064.065c-.02-.015-.028-.018-.023-.01a.82.82 0 0 0 .031.041c.045.058.075.078.078.055l.1.1c-.039-.03-.036-.022.004.029.047.06.078.079.078.049l-.002-.004c.41.405.796.765.844.783a.367.367 0 0 0 .476-.242c.022-.076.104-.606.182-1.18.078-.573.155-1.048.172-1.055a115.693 115.693 0 0 0 1.02-.513c.922-.469.99-.51 1.054-.641.06-.124.064-.155.02-.275-.049-.13-.09-.154-1.083-.647a38.285 38.285 0 0 1-1.048-.531c-.01-.01-.085-.472-.168-1.026a25.231 25.231 0 0 0-.186-1.14.375.375 0 0 0-.38-.287zm11.684.95c.005.016-.04.337-.102.714-.06.376-.111.746-.111.82-.001.127.036.168.596.71.327.316.584.577.572.577-.126.002-1.504.231-1.584.264-.092.037-.16.15-.463.775l-.354.733-.355-.703c-.229-.454-.389-.725-.447-.764-.074-.049-1.336-.261-1.588-.268-.013 0 .152-.165.224-.248l.004-.006.037-.04h.002c.013-.004.037-.025.067-.063.028-.036.04-.05.03-.045.001-.002 0-.003.003-.006.006.016.034-.005.076-.058.04-.051.045-.06.006-.03.032-.032.02-.028.055-.062.355-.356.568-.6.588-.668.021-.078-.009-.331-.104-.862-.074-.412-.13-.756-.125-.763.006-.007.318.146.692.34.448.232.72.351.798.351.08 0 .338-.117.795-.361.372-.2.682-.35.688-.336zm-11.94.304c.007.006.07.379.139.828.094.606.143.834.191.888.037.04.394.231.791.424.4.193.723.361.723.373 0 .013-.333.19-.74.395-.407.205-.76.405-.785.445-.025.04-.097.441-.16.89-.063.45-.117.82-.122.825-.002.003-.223-.218-.4-.393.008.003.012-.002.012-.013a.248.248 0 0 0-.065-.063c-.057-.044-.058-.044-.015.01-.066-.065-.063-.059-.137-.133l-.023-.023c.013.008.021.005.021-.01a.242.242 0 0 0-.064-.064c-.059-.046-.06-.045-.014.013l.031.04c-.336-.334-.589-.562-.644-.573-.052-.01-.45.045-.881.123-.432.078-.793.135-.801.127-.014-.013.302-.65.603-1.22.068-.128.122-.284.122-.348-.001-.076-.133-.363-.383-.83-.251-.47-.368-.716-.336-.723.026-.006.397.047.824.119.745.125.782.128.904.07a.667.667 0 0 0 .203-.156c.11-.139.992-1.036 1.006-1.021zm9.13 1.492c-.003-.002-.019.008-.048.031-.035.028-.062.057-.062.065 0 .03.028.01.076-.051.023-.03.035-.043.033-.045zm-.188.183c-.007.004-.02.015-.041.032-.036.027-.065.056-.065.064 0 .03.03.01.078-.05.029-.037.038-.051.028-.046zm19.496.118c-.006-.005-.01.033-.01.101 0 .09.007.127.016.082a.528.528 0 0 0-.006-.183zm-19.639.029c-.002-.002-.016.008-.045.031-.035.027-.064.057-.064.065 0 .03.03.01.078-.051.023-.03.033-.043.031-.045zm-1.357.256a.418.418 0 0 0-.043.031c-.036.027-.063.057-.063.064 0 .03.03.01.078-.05.029-.037.038-.05.028-.045zm-.143.146c-.002-.002-.018.009-.047.031-.035.028-.062.057-.062.065 0 .03.03.01.078-.05.023-.03.033-.044.031-.046zm-8.383 1.72c-.002.003.01.017.034.046.027.035.056.064.064.064.03 0 .01-.03-.05-.078-.03-.023-.046-.033-.048-.031zm.221.22c-.002.002.008.016.031.045.028.035.057.064.065.064.03 0 .01-.03-.051-.078-.03-.023-.043-.033-.045-.031zm.328 1.465c-.002.001.01.015.033.044.028.036.057.065.065.065.03 0 .01-.03-.051-.078-.03-.023-.045-.033-.047-.031zm.111.109c-.001.002.009.016.032.045.047.06.078.08.078.05a.242.242 0 0 0-.065-.064c-.029-.023-.043-.033-.045-.031zm.366.365c-.002.002.008.018.031.047.048.061.078.079.078.049 0-.008-.029-.035-.064-.063-.03-.022-.043-.035-.045-.033zm2.072 3.838a.605.605 0 0 0-.295.072c-.068.04-.628.438-1.244.881l-1.121.805-.135-.049c-2.799-1.01-2.796-1.008-3.039-.86-.153.094-.28.361-.248.522.012.062.213.715.447 1.451a199.606 199.606 0 0 1 .43 1.362c.002.012-.375.513-.838 1.111-.463.598-.88 1.147-.924 1.22a.535.535 0 0 0 .211.766c.159.082.18.082 1.631.082h1.469l.84 1.23c.648.952.867 1.25.964 1.302a.556.556 0 0 0 .676-.116c.042-.045.28-.694.549-1.492l.477-1.412 1.402-.41c.771-.225 1.446-.44 1.5-.48.226-.166.289-.522.129-.74-.04-.054-.602-.483-1.25-.956l-1.18-.861.02-.64a445.232 445.232 0 0 0 .04-1.518l.024-.88-.086-.124a1.01 1.01 0 0 0-.181-.196.46.46 0 0 0-.268-.07zm-.6 1.645-.023.746c-.044 1.346-.041 1.429.025 1.554.04.075.344.325.873.715.447.33.83.609.852.623.021.014.028.037.016.05-.012.01-.448.143-.97.296-.991.29-1.088.326-1.195.443-.035.04-.217.53-.404 1.088l-.338 1.016-.603-.887c-.486-.715-.629-.9-.738-.955-.125-.063-.227-.068-1.198-.068-.338 0-.42-.008-.615-.012.055 0 .09-.005.1-.008-.003-.002-.01-.006-.026-.008a1.166 1.166 0 0 0-.238 0 .082.082 0 0 0-.027.006.261.261 0 0 0 .062.008c-.037-.001-.136 0-.156-.002l.002-.002c-.001-.002-.004-.005-.01-.008a.141.141 0 0 0-.092 0c-.006.003-.009.006-.01.008h-.054c0-.01.289-.387.64-.842.42-.542.653-.875.678-.968.04-.152.007-.28-.451-1.696-.09-.277-.145-.504-.125-.504.02 0 .475.159 1.012.352.828.298.996.347 1.119.328.108-.017.333-.16.894-.563l.877-.624.123-.086zm-3.92 4.587a.931.931 0 0 0-.115.012c.011.004.065.01.147.01a.776.776 0 0 0 .144-.008c-.002-.002-.009-.006-.025-.008a1.104 1.104 0 0 0-.15-.006zm.508 0a1.03 1.03 0 0 0-.119.006.082.082 0 0 0-.027.006c.011.004.065.01.146.01a.785.785 0 0 0 .145-.008c-.002-.002-.01-.006-.026-.008a1.033 1.033 0 0 0-.119-.006zm.471 0a.959.959 0 0 0-.143.012c.008.004.054.01.13.01.12 0 .173-.008.118-.016a.755.755 0 0 0-.105-.006zm-1.674 1.135a.928.928 0 0 0-.115.012c.011.004.065.01.146.01a.777.777 0 0 0 .145-.008c-.002-.002-.01-.006-.025-.008a1.104 1.104 0 0 0-.15-.006zm.475 0a.884.884 0 0 0-.114.012.72.72 0 0 0 .147.01.776.776 0 0 0 .144-.008c-.002-.002-.009-.006-.025-.008-.04-.005-.1-.007-.152-.006zm.508 0c-.044 0-.087.002-.12.006a.082.082 0 0 0-.027.006c.011.004.065.01.147.01a.775.775 0 0 0 .144-.008c-.002-.002-.009-.006-.025-.008a1.034 1.034 0 0 0-.12-.006zm.402 0a.47.47 0 0 0-.082.006c-.012.002-.016.006-.018.008.008.004.043.01.1.01a.376.376 0 0 0 .101-.008.028.028 0 0 0-.017-.01.496.496 0 0 0-.084-.006zm-1.947.006c-.066.008-.012.016.119.016.13 0 .182-.008.117-.016a1.147 1.147 0 0 0-.236 0zm-7.989 1.436.069.082c.065.077.095.1.095.07a.393.393 0 0 0-.082-.082l-.082-.07zm.22.218.07.084c.065.078.093.098.093.069a.393.393 0 0 0-.082-.082l-.082-.07zm32.923.203c-.002-.001-.016.009-.045.032-.035.027-.064.056-.064.064 0 .03.03.01.078-.05.022-.03.033-.044.03-.045zm-15.758 6.63c-.008 0-.017.004-.025.007-.028.012-.019.02.023.022.039 0 .06-.008.047-.02-.008-.008-.026-.012-.045-.01zm.111 0c-.008 0-.017.004-.025.007v-.002c-.03.012-.021.022.022.024.038 0 .059-.008.046-.02-.008-.008-.024-.012-.043-.01z"/></symbol><symbol id="as-rect" viewBox="0 0 48 47.998"><path d="M.581 47.943a.853.853 0 0 1-.527-.538C.005 47.238 0 44.975 0 24S.005.762.054.596A.835.835 0 0 1 .596.054C.762.005 3.026 0 24 0 44.975 0 47.24.005 47.405.054a.835.835 0 0 1 .54.542C47.995.762 48 3.026 48 24c0 20.975-.005 23.239-.054 23.405a.835.835 0 0 1-.541.54c-.167.05-2.427.055-23.42.053C3.547 47.996.73 47.989.581 47.943zM46.327 24V1.674H1.673v44.653h44.654ZM19.22 43.192a.762.762 0 0 1-.214-.101c-.058-.042-.536-.71-1.076-1.504l-.971-1.43h-1.69c-1.126 0-1.738-.013-1.83-.039-.372-.103-.569-.562-.389-.907.027-.05.508-.684 1.07-1.409.561-.724 1.02-1.334 1.02-1.354 0-.021-.23-.76-.511-1.643s-.512-1.662-.512-1.732a.63.63 0 0 1 .626-.629c.17-.001.182.003 1.937.637.594.215 1.162.42 1.263.454l.182.064 1.385-.995c.761-.547 1.422-1.009 1.467-1.026.126-.048.418-.037.527.02.148.075.311.28.338.422.022.118-.035 2.62-.074 3.24l-.017.278 1.243.907c1.57 1.143 1.566 1.14 1.65 1.305.134.263.055.63-.173.797-.096.072-.62.234-2.685.832-.373.108-.697.214-.719.235-.021.02-.278.759-.57 1.64-.31.933-.566 1.65-.613 1.713-.134.18-.434.283-.664.225zm.35-3.27c.381-1.152.46-1.324.641-1.416.052-.026.596-.193 1.21-.37.613-.178 1.128-.335 1.144-.349.015-.014-.385-.33-.89-.699-1.057-.775-1.08-.794-1.162-.977-.058-.128-.059-.216-.023-1.365.02-.675.032-1.233.024-1.24-.007-.009-.451.3-.987.686-.536.385-1.016.716-1.068.735-.209.08-.37.04-1.509-.37-.62-.223-1.133-.399-1.141-.39-.009.008.148.53.35 1.16.2.63.364 1.204.364 1.277 0 .074-.02.177-.044.23-.024.054-.377.529-.785 1.056l-.742.96 1.265.017c1.197.017 1.272.022 1.404.09.118.062.246.231.83 1.09.38.559.702 1.016.716 1.016.013 0 .194-.513.402-1.141zm-.52-12.664c-.038-.021-.48-.457-.98-.968l-.91-.93-1.234.218c-.678.12-1.294.218-1.367.218a.427.427 0 0 1-.432-.486c.009-.07.283-.641.61-1.27l.591-1.143-.61-1.139c-.345-.646-.616-1.194-.626-1.265-.036-.266.164-.484.444-.484.08 0 .68.087 1.33.194.65.106 1.203.189 1.229.183.025-.006.443-.424.927-.928.485-.505.926-.94.98-.968a.467.467 0 0 1 .57.147c.038.056.126.534.256 1.39l.198 1.303 1.133.549c.623.302 1.169.572 1.213.6.181.113.237.419.113.622-.057.093-.262.208-1.255.706-.652.327-1.186.604-1.186.616 0 .056-.353 2.548-.368 2.595a.54.54 0 0 1-.12.153c-.114.11-.381.155-.506.087zm-.105-1.541c.011-.062.072-.491.136-.953.082-.588.135-.867.178-.933.044-.067.312-.22.937-.535l.876-.44-.889-.44c-.731-.36-.9-.456-.95-.544-.036-.066-.111-.45-.2-1.026a21.06 21.06 0 0 0-.153-.932c-.007-.007-.301.287-.653.653-.353.366-.683.689-.735.716-.14.075-.284.064-1.214-.09a15.494 15.494 0 0 0-.87-.13c-.012.005.178.386.424.845.372.698.446.862.447.987 0 .124-.075.294-.436.99-.24.462-.433.844-.427.85.005.005.433-.067.95-.16.518-.092.988-.16 1.046-.15.079.013.271.187.784.709.374.38.69.692.704.693.014.002.034-.048.045-.11zm12.044.611c-.125-.046-.213-.192-.737-1.24-.305-.61-.573-1.115-.597-1.123a48.787 48.787 0 0 0-1.228-.176c-.793-.108-1.22-.18-1.29-.22a.466.466 0 0 1-.212-.45c.02-.113.14-.245.931-1.021l.909-.891-.216-1.2c-.133-.744-.208-1.252-.197-1.335.021-.167.134-.29.313-.344l.139-.041 1.155.588 1.156.589 1.097-.587c1.16-.62 1.228-.645 1.449-.53.06.03.135.113.168.184.06.127.06.143-.134 1.319a38.6 38.6 0 0 0-.196 1.262c0 .05.275.335.845.88.465.443.881.856.924.916.136.19.07.515-.127.62-.039.02-.577.115-1.196.21-.62.095-1.178.182-1.241.194-.106.018-.128.046-.25.306a93.411 93.411 0 0 1-.55 1.139c-.341.696-.438.865-.524.915a.538.538 0 0 1-.39.036zm1.069-3.13c.078-.054.313-.102.99-.204.487-.073.891-.137.897-.143.01-.01-.814-.821-1.085-1.065-.202-.183-.268-.3-.266-.477 0-.073.06-.501.135-.951.074-.451.132-.823.13-.826-.004-.004-.359.184-.79.416-1.024.553-.886.552-1.912.014a14.435 14.435 0 0 0-.79-.4c-.006.006.061.412.15.902.105.59.15.925.133.993-.017.069-.245.324-.693.774-.367.369-.651.671-.632.671.02 0 .435.055.923.123.664.091.909.138.974.186.052.038.25.387.505.888l.419.825.405-.828c.304-.623.43-.845.507-.898zm6.687-6.602c-.057-.036-.434-.42-.837-.853-.402-.433-.752-.788-.777-.788-.025 0-.511.071-1.08.16-.6.092-1.093.152-1.172.142-.187-.025-.303-.149-.325-.348-.017-.15.006-.2.53-1.153l.547-.996-.508-1.011c-.28-.557-.509-1.053-.509-1.103 0-.217.203-.433.406-.432.036 0 .551.093 1.146.208l1.08.208.784-.78c.432-.429.82-.797.861-.818a.614.614 0 0 1 .22-.039c.113 0 .167.023.245.1.055.056.11.138.12.183.012.046.08.558.153 1.139.072.58.146 1.068.164 1.085.018.016.464.253.991.525.527.273.986.52 1.02.55.148.132.139.45-.017.59-.043.038-.51.271-1.038.517-.526.246-.976.465-.998.485-.022.021-.122.531-.222 1.135-.106.635-.205 1.131-.235 1.178a.405.405 0 0 1-.549.116zm-.052-1.308c0-.144.261-1.558.298-1.614.074-.112.136-.147.853-.484.355-.166.657-.314.673-.327.016-.015-.282-.186-.662-.382-.68-.35-.792-.419-.849-.525-.015-.03-.071-.406-.124-.837a16.65 16.65 0 0 0-.108-.798c-.006-.008-.274.244-.596.561-.473.466-.607.58-.705.597-.079.013-.396-.033-.89-.13a16.242 16.242 0 0 0-.776-.142c-.006.005.156.344.36.754.304.612.366.763.349.85-.012.057-.192.418-.401.8-.21.383-.378.7-.374.703.004.003.37-.05.816-.117.684-.104.826-.116.913-.08.057.023.342.3.634.614.466.501.589.617.589.557zm-6.437-7.549c-.054-.022-.645-.715-.798-.934a8.062 8.062 0 0 0-.57.03c-.43.031-.585.03-.662-.001a.314.314 0 0 1-.178-.28c0-.035.147-.287.327-.56l.327-.494-.205-.508c-.213-.53-.24-.673-.153-.798.094-.134.215-.129.804.037l.553.156.4-.338c.22-.185.433-.356.472-.38a.301.301 0 0 1 .352.036c.09.078.093.09.121.683.017.332.035.607.04.612.007.005.22.14.476.299.49.306.564.376.564.525 0 .178-.107.253-.633.445-.275.1-.518.194-.54.208-.023.014-.104.274-.18.579-.087.341-.165.577-.204.616a.308.308 0 0 1-.313.067zm.054-1.308c.094-.387.113-.408.52-.556.158-.056.285-.112.285-.124 0-.012-.115-.095-.256-.185a2.173 2.173 0 0 1-.306-.22c-.027-.033-.062-.212-.082-.423l-.035-.366-.256.214c-.141.118-.293.223-.338.235-.045.01-.225-.022-.401-.072a1.885 1.885 0 0 0-.334-.079c-.007.007.042.149.109.315s.122.337.122.381c0 .044-.087.208-.192.366a5.44 5.44 0 0 0-.192.297c0 .006.149.005.33-.003.182-.008.367-.005.413.007.048.011.17.132.289.282.112.145.214.263.224.263.012 0 .056-.15.1-.332zM17.983 26.222c-.044-.055-.043-.056.013-.013.033.026.06.054.06.061 0 .029-.028.01-.073-.048zm10.078-4.344c0-.007.027-.035.061-.061.056-.043.057-.042.013.013-.045.058-.074.076-.074.048zm-9.347 3.787c-.043-.056-.041-.057.014-.014.033.027.06.054.06.061 0 .029-.028.01-.074-.047zm-.871.418c-.043-.055-.042-.057.013-.014a.223.223 0 0 1 .061.062c0 .028-.028.01-.074-.048zm-.105-.105c-.043-.055-.042-.056.014-.013.058.046.076.074.048.074-.008 0-.035-.027-.062-.06zM28.41 21.53c0-.008.027-.035.06-.062.056-.043.057-.042.014.013-.046.059-.074.077-.074.048zm-10.792 4.326-.067-.078.079.066c.073.062.094.09.066.09a.395.395 0 0 1-.078-.078zm10.931-4.466c0-.007.027-.035.06-.061.056-.044.057-.042.014.013-.045.058-.074.077-.074.048zm-11.124 4.275c-.043-.056-.042-.057.013-.014.033.027.061.054.061.061 0 .029-.029.01-.074-.047zm-.105-.105c-.043-.055-.042-.057.014-.013.033.026.06.054.06.06 0 .03-.028.011-.074-.047zm-.104-.105c-.044-.055-.043-.056.013-.013.033.027.06.054.06.061 0 .029-.028.01-.073-.048zM37.299 10.55c0-.008.027-.035.06-.061.056-.043.057-.042.014.013-.046.058-.074.077-.074.048zM16.513 40.167c.062-.008.172-.008.244 0 .073.007.022.013-.112.013s-.194-.006-.132-.014zm12.925-18.415c.035-.039.07-.07.08-.07.01 0-.01.031-.045.07a.283.283 0 0 1-.08.07c-.01 0 .01-.032.045-.07zm8.07-11.412c0-.007.027-.035.06-.061.056-.044.057-.043.014.013-.046.058-.074.077-.074.048zM29.28 21.913c0-.007.027-.035.061-.061.056-.044.057-.042.013.013-.045.058-.074.076-.074.048zM16.096 40.166c.062-.007.164-.007.226 0 .063.008.012.015-.113.015s-.175-.007-.113-.015zm-.976-1.324c.062-.008.164-.008.226 0s.012.014-.113.014c-.124 0-.176-.006-.113-.014zm22.562-28.676c0-.008.027-.035.061-.062.055-.043.057-.041.013.014-.046.058-.074.076-.074.048zm-8.575 11.921c0-.007.027-.035.06-.06.056-.044.057-.043.014.012-.046.058-.074.077-.074.048zm-13.464 18.08c.062-.008.164-.008.226 0 .062.007.012.014-.113.014-.124 0-.176-.007-.113-.015zm-.07-1.325c.062-.008.164-.008.227 0 .062.008.01.014-.114.014s-.175-.006-.113-.014zm22.284-28.85c0-.008.027-.036.06-.062.056-.043.057-.042.014.013-.046.058-.075.077-.075.048zm-8.924 12.27c0-.008.027-.035.06-.061.056-.044.057-.043.014.013-.046.058-.074.076-.074.047zM1.69 24c0-12.27.004-17.285.01-11.143.004 6.141.004 16.18 0 22.31-.005 6.128-.01 1.103-.01-11.167zm44.62 0c0-12.27.003-17.285.008-11.143.005 6.141.005 16.18 0 22.31-.004 6.128-.009 1.103-.009-11.167zM37.995 9.852c0-.008.027-.035.06-.061.056-.043.057-.043.014.013-.046.058-.074.076-.074.048zM12.857 46.3c6.141-.005 16.18-.005 22.31 0 6.128.005 1.103.009-11.167.009s-17.285-.004-11.143-.01zm2.332-6.135c.063-.007.165-.007.227 0 .062.008.012.015-.113.015s-.176-.007-.114-.015zm.837-1.324c.062-.008.165-.008.227 0s.011.014-.114.014c-.124 0-.175-.006-.113-.014zm-3.169-37.16c6.141-.005 16.18-.005 22.31 0 6.128.005 1.103.008-11.167.008s-17.285-.003-11.143-.009zM28.723 22.47c0-.008.028-.035.061-.062.056-.043.057-.041.013.014-.045.058-.074.076-.074.048zm-.104.104c0-.007.027-.035.06-.061.056-.043.057-.042.014.013-.045.058-.074.077-.074.048zm9.586-12.932c0-.007.027-.035.061-.061.055-.044.057-.043.013.013-.046.058-.074.076-.074.048zM14.737 40.166c.062-.007.164-.007.226 0 .062.008.011.015-.113.015-.125 0-.176-.007-.113-.015zm1.707-1.324c.063-.008.165-.008.227 0s.012.014-.113.014-.176-.006-.114-.014zM38.31 9.538c0-.007.027-.035.061-.06.055-.044.056-.043.013.012-.046.058-.074.077-.074.048zm.26.955c.036-.04.072-.07.082-.07.009 0-.012.03-.046.07a.276.276 0 0 1-.08.07c-.01 0 .01-.032.045-.07zM27.086 22.819c0-.007.027-.035.061-.06.055-.044.056-.043.013.012-.045.058-.074.077-.074.048zm-8.231 4.31c-.044-.056-.042-.057.013-.013.034.026.061.053.061.06 0 .03-.028.01-.074-.047zm-4.57 13.037c.061-.007.164-.007.226 0 .062.008.011.015-.114.015-.124 0-.175-.007-.113-.015zm2.614-1.324c.062-.008.164-.008.226 0s.012.014-.113.014-.176-.006-.113-.014zm.945-14.084c-.043-.055-.042-.056.013-.013.034.026.061.054.061.061 0 .029-.028.01-.074-.048zm20.467-14c0-.007.027-.035.061-.06.055-.044.056-.043.013.012-.046.058-.074.077-.074.048zM27.26 22.645c0-.007.026-.035.06-.061.056-.044.057-.042.013.013-.045.058-.074.077-.074.048zm10.945-11.782c0-.007.027-.035.061-.061.055-.044.057-.042.013.013-.046.058-.074.076-.074.048zM18.001 24.915l-.066-.078.078.066c.074.062.094.09.066.09a.383.383 0 0 1-.078-.078zm20.1-13.948c0-.007.027-.035.06-.06.055-.044.057-.043.014.013-.046.058-.075.076-.075.047zM27.398 22.505c0-.007.027-.034.06-.06.056-.044.057-.043.014.012-.046.059-.074.077-.074.048zm.104-.104c0-.008.028-.035.061-.061.056-.043.057-.042.013.013-.045.058-.074.077-.074.048zM13.865 40.166c.062-.007.164-.007.226 0 .063.008.012.015-.113.015-.124 0-.176-.007-.113-.015zm4.292-15.094c-.044-.055-.042-.057.013-.013.033.026.06.054.06.06 0 .03-.028.011-.073-.047zm.244 1.603c-.043-.055-.043-.056.013-.013.033.027.06.054.06.061 0 .03-.028.01-.073-.048zm-.14-1.499c-.043-.055-.042-.056.014-.013.058.046.076.075.047.075-.007 0-.035-.028-.06-.062zm9.4-2.936a.276.276 0 0 1 .08-.07c.01 0-.011.031-.046.07a.276.276 0 0 1-.08.07c-.01 0 .01-.032.045-.07zm-9.365 4.33c-.043-.055-.042-.056.014-.012.033.026.06.054.06.06 0 .03-.028.011-.074-.047zM37.804 11.26a.285.285 0 0 1 .08-.07c.01 0-.01.032-.045.07a.282.282 0 0 1-.08.07c-.01 0 .01-.031.045-.07z"/></symbol></svg>
