<svg xmlns="http://www.w3.org/2000/svg"><symbol id="as-round" viewBox="0 0 48 48"><path d="M31.537 20.167a.382.382 0 0 0-.274.033l-1.82.973-1.833-.948a.382.382 0 0 0-.55.407l.362 2.031-1.468 1.45a.382.382 0 0 0 .216.65l2.044.283.926 1.844a.382.382 0 0 0 .685-.005l.9-1.856 2.04-.31a.382.382 0 0 0 .208-.654l-1.488-1.43.335-2.036a.382.382 0 0 0-.283-.432zm-.597 1.072-.242 1.47a.382.382 0 0 0 .113.337l1.074 1.033-1.473.224a.382.382 0 0 0-.286.211l-.65 1.341-.669-1.33a.382.382 0 0 0-.29-.208l-1.475-.204 1.06-1.048a.382.382 0 0 0 .107-.339l-.262-1.466 1.324.684a.382.382 0 0 0 .355-.003zm0-13.636a.266.266 0 0 0-.279.04l-.71.592-.893-.249a.266.266 0 0 0-.319.355l.345.86-.512.772a.266.266 0 0 0 .24.412l.923-.062.576.726a.266.266 0 0 0 .466-.1l.226-.899.87-.322a.266.266 0 0 0 .048-.475l-.785-.493-.039-.925a.266.266 0 0 0-.157-.232zm-.35.792.021.527a.266.266 0 0 0 .124.214l.447.281-.495.184a.266.266 0 0 0-.165.184l-.13.512-.327-.414a.266.266 0 0 0-.226-.1l-.526.035.292-.439a.266.266 0 0 0 .025-.246l-.196-.49.508.142a.266.266 0 0 0 .242-.052zm5.811 3.802a.366.366 0 0 0-.377.085l-1.322 1.307-1.826-.349a.366.366 0 0 0-.395.524l.834 1.66-.895 1.63a.366.366 0 0 0 .375.537l1.838-.28 1.272 1.355a.366.366 0 0 0 .627-.19l.302-1.835 1.682-.79a.366.366 0 0 0 .012-.656l-1.65-.854-.234-1.844a.366.366 0 0 0-.243-.3zm-.39 1.126.165 1.3a.366.366 0 0 0 .194.28l1.164.601-1.185.558a.366.366 0 0 0-.205.271l-.213 1.293-.897-.955a.366.366 0 0 0-.32-.11l-1.297.196.632-1.148a.366.366 0 0 0 .006-.34l-.588-1.172 1.287.246a.366.366 0 0 0 .325-.099zM20.921 31.52a.565.565 0 0 0-.292.104l-2.324 1.67-2.693-.967a.565.565 0 0 0-.73.703l.87 2.726L14 38.018a.565.565 0 0 0 .444.91l2.862.015 1.61 2.366a.565.565 0 0 0 1.003-.14l.898-2.717 2.748-.8a.565.565 0 0 0 .176-.998l-2.306-1.694.088-2.86a.565.565 0 0 0-.602-.58zm-.563 1.69-.06 2.013a.565.565 0 0 0 .23.473l1.622 1.192-1.934.563a.565.565 0 0 0-.378.365l-.632 1.912-1.134-1.665a.565.565 0 0 0-.463-.247l-2.014-.01 1.233-1.593a.565.565 0 0 0 .091-.517l-.612-1.919 1.895.681a.565.565 0 0 0 .521-.073zm-1.012-12.9a.399.399 0 0 0-.408.104l-1.505 1.565-2.142-.352a.399.399 0 0 0-.416.581l1.023 1.915-.997 1.928a.399.399 0 0 0 .425.576l2.137-.382 1.526 1.544a.399.399 0 0 0 .68-.225l.296-2.15 1.94-.975a.399.399 0 0 0-.005-.716l-1.954-.947-.327-2.146a.399.399 0 0 0-.273-.32zm-.393 1.24.237 1.554a.399.399 0 0 0 .22.298l1.415.686-1.405.706a.399.399 0 0 0-.216.302l-.216 1.558-1.105-1.119a.399.399 0 0 0-.354-.112l-1.548.277.722-1.397a.399.399 0 0 0-.002-.37l-.742-1.388 1.552.255a.399.399 0 0 0 .352-.117zM23.386.523C10.502.857.28 11.524.503 24.405c.222 12.881 10.806 23.19 23.693 23.078C37.084 47.373 47.49 36.883 47.49 24v-.097h.011l-.01-.322v-.295h-.01l-.005-.097C47.03 10.314 36.27.19 23.386.524zm.036 1.428c12.117-.314 22.206 9.18 22.625 21.287l.012.368V24c0 12.115-9.754 21.95-21.875 22.055-12.12.105-22.044-9.562-22.253-21.675-.209-12.113 9.375-22.114 21.491-22.428z"/></symbol>
<symbol id="as-rect" viewBox="0 0 48 48"><path d="M.843 0A.843.843 0 0 0 0 .843v46.314A.843.843 0 0 0 .843 48h46.314a.843.843 0 0 0 .843-.843V.843A.843.843 0 0 0 47.157 0Zm.843 1.686h44.629v44.629H1.685Z"/><path d="M18.35 18.926a.456.456 0 0 0-.466.118l-1.72 1.79-2.448-.403a.456.456 0 0 0-.476.665l1.17 2.188-1.14 2.205a.456.456 0 0 0 .485.657l2.444-.436 1.743 1.765a.456.456 0 0 0 .776-.258l.34-2.458 2.218-1.114a.456.456 0 0 0-.006-.818l-2.233-1.082-.375-2.454a.456.456 0 0 0-.312-.365Zm-.449 1.416.271 1.777a.456.456 0 0 0 .252.342l1.617.784-1.606.806a.456.456 0 0 0-.247.345l-.246 1.781-1.264-1.278a.456.456 0 0 0-.404-.128l-1.77.316.826-1.597a.456.456 0 0 0-.003-.425l-.848-1.585 1.774.291a.456.456 0 0 0 .403-.133zm2.369 11.4a.646.646 0 0 0-.453.118l-2.657 1.908-3.078-1.105a.646.646 0 0 0-.834.804l.995 3.116-2.002 2.586a.646.646 0 0 0 .506 1.04l3.272.018 1.84 2.704a.646.646 0 0 0 1.147-.16l1.027-3.106 3.14-.915a.646.646 0 0 0 .202-1.14l-2.637-1.937.101-3.27a.646.646 0 0 0-.569-.66zm-.762 1.93-.07 2.301a.646.646 0 0 0 .263.54l1.855 1.363-2.21.644a.646.646 0 0 0-.433.417l-.723 2.185-1.295-1.902a.646.646 0 0 0-.53-.283l-2.302-.012 1.41-1.82a.646.646 0 0 0 .104-.592l-.7-2.193 2.166.779a.646.646 0 0 0 .595-.084zm18.338-24.02a.418.418 0 0 0-.43.099l-1.512 1.493-2.087-.398a.418.418 0 0 0-.452.598l.953 1.898-1.024 1.862a.418.418 0 0 0 .43.615l2.1-.32 1.455 1.549a.418.418 0 0 0 .717-.218l.345-2.097 1.922-.904a.418.418 0 0 0 .014-.75l-1.887-.975-.267-2.108a.418.418 0 0 0-.277-.343zm-.445 1.288.187 1.486a.418.418 0 0 0 .223.32l1.33.687-1.355.637a.418.418 0 0 0-.234.311l-.243 1.478-1.026-1.092a.418.418 0 0 0-.367-.127l-1.481.225.722-1.312a.418.418 0 0 0 .008-.39l-.673-1.338 1.472.281a.418.418 0 0 0 .372-.113zM31.6 4.4a.304.304 0 0 0-.317.044l-.813.679-1.02-.285a.304.304 0 0 0-.364.406l.395.982-.587.883a.304.304 0 0 0 .274.471l1.057-.07.658.829a.304.304 0 0 0 .533-.114l.258-1.028.993-.368a.304.304 0 0 0 .056-.543l-.897-.564-.044-1.057a.304.304 0 0 0-.181-.265Zm-.4.905.026.603a.304.304 0 0 0 .141.244l.51.321-.564.21a.304.304 0 0 0-.189.212l-.147.585-.375-.473a.304.304 0 0 0-.259-.115l-.601.04.334-.502a.304.304 0 0 0 .028-.281l-.225-.56.582.162a.304.304 0 0 0 .276-.06zm1.086 13.456a.437.437 0 0 0-.314.038l-2.08 1.112-2.096-1.082a.437.437 0 0 0-.63.464l.415 2.322-1.678 1.658a.437.437 0 0 0 .248.744l2.336.322 1.059 2.108a.437.437 0 0 0 .783-.006l1.029-2.123 2.331-.356a.437.437 0 0 0 .237-.745l-1.7-1.635.382-2.328a.437.437 0 0 0-.322-.493zm-.683 1.226-.276 1.68a.437.437 0 0 0 .128.387l1.227 1.18-1.682.256a.437.437 0 0 0-.328.241l-.743 1.533-.765-1.522a.437.437 0 0 0-.33-.237l-1.687-.233 1.212-1.197a.437.437 0 0 0 .122-.388l-.3-1.677 1.514.783a.437.437 0 0 0 .406-.003z"/></symbol></svg>
